<?xml version="1.0" encoding="UTF-8" standalone="no"?>
<!-- Created with Inkscape (http://www.inkscape.org/) -->

<svg
   xmlns:dc="http://purl.org/dc/elements/1.1/"
   xmlns:cc="http://creativecommons.org/ns#"
   xmlns:rdf="http://www.w3.org/1999/02/22-rdf-syntax-ns#"
   xmlns:svg="http://www.w3.org/2000/svg"
   xmlns="http://www.w3.org/2000/svg"
   xmlns:sodipodi="http://sodipodi.sourceforge.net/DTD/sodipodi-0.dtd"
   xmlns:inkscape="http://www.inkscape.org/namespaces/inkscape"
   width="202.03404mm"
   height="168.94881mm"
   viewBox="0 0 202.03404 168.94881"
   version="1.1"
   id="svg43565"
   inkscape:version="0.92.1 r15371"
   sodipodi:docname="foodsearch_v3.svg">
  <defs
     id="defs43559" />
  <sodipodi:namedview
     id="base"
     pagecolor="#ffffff"
     bordercolor="#666666"
     borderopacity="1.0"
     inkscape:pageopacity="0.0"
     inkscape:pageshadow="2"
     inkscape:zoom="0.7"
     inkscape:cx="472.2337"
     inkscape:cy="320.93485"
     inkscape:document-units="mm"
     inkscape:current-layer="layer1"
     showgrid="false"
     fit-margin-top="0"
     fit-margin-left="0"
     fit-margin-right="0"
     fit-margin-bottom="0"
     inkscape:window-width="1366"
     inkscape:window-height="705"
     inkscape:window-x="-8"
     inkscape:window-y="-8"
     inkscape:window-maximized="1" />
  <metadata
     id="metadata43562">
    <rdf:RDF>
      <cc:Work
         rdf:about="">
        <dc:format>image/svg+xml</dc:format>
        <dc:type
           rdf:resource="http://purl.org/dc/dcmitype/StillImage" />
        <dc:title></dc:title>
      </cc:Work>
    </rdf:RDF>
  </metadata>
  <g
     inkscape:label="Layer 1"
     inkscape:groupmode="layer"
     id="layer1"
     transform="translate(197.02297,-33.364886)">
    <path
       inkscape:connector-curvature="0"
       d="m -9.7093803,117.83929 c 0,46.65417 -37.8202297,84.4744 -84.4729897,84.4744 -46.65414,0 -84.4744,-37.82023 -84.4744,-84.4744 0,-46.654159 37.82026,-84.474404 84.4744,-84.474404 46.65276,0 84.4729897,37.820245 84.4729897,84.474404"
       style="fill:#387ef5;fill-opacity:1;fill-rule:nonzero;stroke:none;stroke-width:0.03527778"
       id="path38942" />
    <path
       inkscape:connector-curvature="0"
       d="m -28.54099,117.83929 c 0,36.25392 -29.38852,65.64278 -65.64279,65.64278 -36.25355,0 -65.64169,-29.38886 -65.64169,-65.64278 0,-36.2518 29.38814,-65.641362 65.64169,-65.641362 36.25427,0 65.64279,29.389562 65.64279,65.641362"
       style="fill:#fffdfe;fill-opacity:1;fill-rule:nonzero;stroke:none;stroke-width:0.03527778"
       id="path38944" />
    <path
       inkscape:connector-curvature="0"
       d="m -32.84595,117.83929 c 0,33.87479 -27.46163,61.33817 -61.33642,61.33817 -33.87688,0 -61.33852,-27.46338 -61.33852,-61.33817 0,-33.875135 27.46164,-61.338533 61.33852,-61.338533 33.87479,0 61.33642,27.463398 61.33642,61.338533"
       style="fill:#387ef5;fill-opacity:1;fill-rule:nonzero;stroke:none;stroke-width:0.03527778"
       id="path38946" />
    <path
       inkscape:connector-curvature="0"
       d="m 1.4388797,59.080828 c 2.42809,0.909185 2.23467,3.584731 2.321,5.91059 0.19086,5.156396 -0.0102,11.530671 -0.18752,17.814258 -0.2385,8.542584 -0.0922,17.468164 -0.13706,25.919284 -0.0579,10.89509 0.54951,20.5805 1.02549,29.79505 0.57615,11.09875 0.96248,21.50992 -0.22467,32.52335 -0.35174,3.25016 0.0917,9.51196 -5.13001996,8.24516 -3.33061004,-0.80697 -4.42526004,-13.45586 -4.49418004,-19.87548 -0.0676,-6.30228 0.86307,-12.12655 1.8714,-18.18982 1.24095,-7.47559 2.71501004,-14.52671 1.58935,-20.94863 -0.60715,-3.47124 -4.73933,-6.36736 -5.38287,-9.9526 -1.48789,-8.30869 -0.79722,-22.284858 1.357,-33.662076 1.58242,-8.347631 3.13411,-16.025353 6.82850004,-17.582161 0.18674996,0.0011 0.38733996,-0.06302 0.56357996,0.0031"
       style="fill:#387ef5;fill-opacity:1;fill-rule:evenodd;stroke:none;stroke-width:0.02561802"
       id="path38950" />
    <path
       inkscape:connector-curvature="0"
       d="m -181.7944,97.555763 c 3.92545,-10.489297 -0.35787,-22.246177 -1.46945,-32.44932 -0.0733,-0.668628 -0.40014,-0.669912 -0.43012,0.0016 -0.3064,6.830787 0.72858,20.818165 -0.8787,20.645757 -1.60727,-0.172408 -1.6972,-13.92564 -1.71794,-20.77103 -0.002,-0.671449 -0.20188,-0.705262 -0.32612,-0.04509 -0.87333,4.666312 -0.0647,20.985921 -1.82938,20.788406 -1.76469,-0.197516 -1.12285,-15.057665 -1.84297,-20.76741 -0.084,-0.666835 -0.31305,-0.639937 -0.342,0.03126 -0.28409,6.684767 -0.29421,21.527196 -1.81977,20.707803 -1.52555,-0.819394 -0.45561,-14.343007 -1.16959,-20.690126 -0.0748,-0.668885 -0.39887,-0.665043 -0.42552,0.0072 -0.42295,10.787745 -5.26322,21.890596 -1.63905,32.413967 1.05394,3.06032 3.73922,5.32701 4.87178,7.94824 0.79494,4.67964 0.45064,10.62149 0.50392,14.91763 0.24157,19.44561 -4.6174,38.74726 -0.80953,58.07938 0.13296,0.6781 0.81362,1.22096 1.50454,1.2143 0.25388,-0.002 0.50775,-0.004 0.76137,-0.007 0.25362,0.002 0.50775,0.004 0.76137,0.007 0.69117,0.007 1.37158,-0.5362 1.50454,-1.2143 3.80787,-19.33212 -1.0511,-38.63377 -0.80953,-58.07938 0.0523,-4.20699 -0.27436,-9.98949 0.4583,-14.622 1.0565,-2.67323 3.94954,-4.9248 5.14385,-8.116804"
       style="fill:#387ef5;fill-opacity:1;fill-rule:evenodd;stroke:none;stroke-width:0.02561802"
       id="path38952"
       sodipodi:nodetypes="ccccccccccccccccccccscc" />
    <g
       id="g43491"
       transform="matrix(0.26458333,0,0,0.26458333,-105.50092,24.187021)"
       style="fill:#959595;fill-opacity:1">
      <path
         style="fill:#ffffff;fill-opacity:1;stroke-width:0.45147127"
         d="m 151.06117,488.68341 c -3.8766,-0.84349 -7.76031,-2.93619 -11.08852,-5.975 -1.57235,-1.43563 -17.18356,-16.50999 -34.69157,-33.49862 -17.508011,-16.9886 -33.083977,-32.09993 -34.613259,-33.58075 l -2.780517,-2.69235 -3.823,2.0839 c -9.96812,5.43364 -21.78655,9.35588 -34.408684,11.41938 -6.982337,1.1415 -23.689886,1.13576 -30.7000475,-0.0104 -12.6906035,-2.07514 -23.8138095,-5.78813 -34.3118165,-11.4536 -24.46438,-13.20269 -42.71324,-35.85327 -50.28854,-62.41834 -10.5275,-36.91788 -0.16118,-76.59241 27.00131,-103.34089 15.83215,-15.59085 35.26446,-25.18963 58.27625351,-28.78614 7.06572849,-1.1043 22.53355049,-1.11514 29.58984749,-0.0207 33.568537,5.20637 61.161802,24.5604 77.050043,54.04322 5.28607,9.80903 8.85836,20.61939 11.05366,33.45027 1.25349,7.32624 1.13051,24.86501 -0.22788,32.5012 -2.28005,12.81718 -6.41441,24.46432 -12.42134,34.9929 l -1.56862,2.74937 36.10252,34.94849 c 21.13349,20.45792 36.71237,35.88442 37.57338,37.20583 6.74164,10.34641 5.50849,22.90436 -3.10817,31.65252 -6.12085,6.21423 -14.08808,8.58513 -22.61505,6.72981 z M 24.49701,384.79161 c 24.364924,-4.14126 44.437296,-22.72892 50.330996,-46.60804 8.335848,-33.77386 -13.244044,-68.04741 -47.655478,-75.68724 -5.190723,-1.15242 -16.896917,-1.42238 -22.233417,-0.51274 -6.1258505,1.04419 -11.6319084,2.72643 -16.5736,5.06366 -15.385406,7.27669 -27.533895,20.76654 -32.893725,36.52566 -2.46406,7.2449 -3.01775,10.88967 -3.01775,19.86474 0,8.97507 0.55369,12.61985 3.01775,19.86474 7.291132,21.43757 26.473654,37.72079 48.901442,41.51039 5.118209,0.8648 14.972201,0.85446 20.123782,-0.0212 z"
         id="path43493"
         inkscape:connector-curvature="0" />
    </g>
  </g>
</svg>
